<svg width="98" height="42" viewBox="0 0 98 42" fill="none" xmlns="http://www.w3.org/2000/svg">
<g clip-path="url(#clip0_1_33)">
<path fill-rule="evenodd" clip-rule="evenodd" d="M11.7866 36.0327C11.6658 35.9122 11.4484 35.8398 11.1707 35.8398H10.9291V37.0695H11.1707C11.3639 37.0695 11.6417 37.0212 11.7986 36.8645C11.8953 36.7681 11.9677 36.5993 11.9677 36.4426C11.9677 36.2859 11.8953 36.1292 11.7866 36.0327ZM11.7866 36.0327C11.6658 35.9122 11.4484 35.8398 11.1707 35.8398H10.9291V37.0695H11.1707C11.3639 37.0695 11.6417 37.0212 11.7986 36.8645C11.8953 36.7681 11.9677 36.5993 11.9677 36.4426C11.9677 36.2859 11.8953 36.1292 11.7866 36.0327ZM11.7866 36.0327C11.6658 35.9122 11.4484 35.8398 11.1707 35.8398H10.9291V37.0695H11.1707C11.3639 37.0695 11.6417 37.0212 11.7986 36.8645C11.8953 36.7681 11.9677 36.5993 11.9677 36.4426C11.9677 36.2859 11.8953 36.1292 11.7866 36.0327ZM21.2786 36.3823L20.7352 37.9856H21.8341L21.2786 36.3823ZM21.2786 36.3823L20.7352 37.9856H21.8341L21.2786 36.3823ZM11.7866 36.0327C11.6658 35.9122 11.4484 35.8398 11.1707 35.8398H10.9291V37.0695H11.1707C11.3639 37.0695 11.6417 37.0212 11.7986 36.8645C11.8953 36.7681 11.9677 36.5993 11.9677 36.4426C11.9677 36.2859 11.8953 36.1292 11.7866 36.0327ZM11.7866 36.0327C11.6658 35.9122 11.4484 35.8398 11.1707 35.8398H10.9291V37.0695H11.1707C11.3639 37.0695 11.6417 37.0212 11.7986 36.8645C11.8953 36.7681 11.9677 36.5993 11.9677 36.4426C11.9677 36.2859 11.8953 36.1292 11.7866 36.0327ZM21.2786 36.3823L20.7352 37.9856H21.8341L21.2786 36.3823ZM21.2786 36.3823L20.7352 37.9856H21.8341L21.2786 36.3823ZM11.7866 36.0327C11.6658 35.9122 11.4484 35.8398 11.1707 35.8398H10.9291V37.0695H11.1707C11.3639 37.0695 11.6417 37.0212 11.7986 36.8645C11.8953 36.7681 11.9677 36.5993 11.9677 36.4426C11.9677 36.2859 11.8953 36.1292 11.7866 36.0327ZM11.7866 36.0327C11.6658 35.9122 11.4484 35.8398 11.1707 35.8398H10.9291V37.0695H11.1707C11.3639 37.0695 11.6417 37.0212 11.7986 36.8645C11.8953 36.7681 11.9677 36.5993 11.9677 36.4426C11.9677 36.2859 11.8953 36.1292 11.7866 36.0327ZM21.2786 36.3823L20.7352 37.9856H21.8341L21.2786 36.3823ZM46.8564 36.2497C46.5545 35.9604 46.1439 35.9363 45.8299 35.9363H45.516V38.709H45.7816C46.0956 38.709 46.5304 38.6848 46.8685 38.3473C47.0376 38.1906 47.2429 37.8772 47.2429 37.3226C47.2429 36.8766 47.11 36.4788 46.8564 36.2497ZM46.8564 36.2497C46.5545 35.9604 46.1439 35.9363 45.8299 35.9363H45.516V38.709H45.7816C46.0956 38.709 46.5304 38.6848 46.8685 38.3473C47.0376 38.1906 47.2429 37.8772 47.2429 37.3226C47.2429 36.8766 47.11 36.4788 46.8564 36.2497ZM21.2786 36.3823L20.7352 37.9856H21.8341L21.2786 36.3823ZM11.7866 36.0327C11.6658 35.9122 11.4484 35.8398 11.1707 35.8398H10.9291V37.0695H11.1707C11.3639 37.0695 11.6417 37.0212 11.7986 36.8645C11.8953 36.7681 11.9677 36.5993 11.9677 36.4426C11.9677 36.2859 11.8953 36.1292 11.7866 36.0327ZM11.7866 36.0327C11.6658 35.9122 11.4484 35.8398 11.1707 35.8398H10.9291V37.0695H11.1707C11.3639 37.0695 11.6417 37.0212 11.7986 36.8645C11.8953 36.7681 11.9677 36.5993 11.9677 36.4426C11.9677 36.2859 11.8953 36.1292 11.7866 36.0327ZM21.2786 36.3823L20.7352 37.9856H21.8341L21.2786 36.3823ZM46.8564 36.2497C46.5545 35.9604 46.1439 35.9363 45.8299 35.9363H45.516V38.709H45.7816C46.0956 38.709 46.5304 38.6848 46.8685 38.3473C47.0376 38.1906 47.2429 37.8772 47.2429 37.3226C47.2429 36.8766 47.11 36.4788 46.8564 36.2497ZM46.8564 36.2497C46.5545 35.9604 46.1439 35.9363 45.8299 35.9363H45.516V38.709H45.7816C46.0956 38.709 46.5304 38.6848 46.8685 38.3473C47.0376 38.1906 47.2429 37.8772 47.2429 37.3226C47.2429 36.8766 47.11 36.4788 46.8564 36.2497ZM21.2786 36.3823L20.7352 37.9856H21.8341L21.2786 36.3823ZM11.7866 36.0327C11.6658 35.9122 11.4484 35.8398 11.1707 35.8398H10.9291V37.0695H11.1707C11.3639 37.0695 11.6417 37.0212 11.7986 36.8645C11.8953 36.7681 11.9677 36.5993 11.9677 36.4426C11.9677 36.2859 11.8953 36.1292 11.7866 36.0327ZM11.7866 36.0327C11.6658 35.9122 11.4484 35.8398 11.1707 35.8398H10.9291V37.0695H11.1707C11.3639 37.0695 11.6417 37.0212 11.7986 36.8645C11.8953 36.7681 11.9677 36.5993 11.9677 36.4426C11.9677 36.2859 11.8953 36.1292 11.7866 36.0327ZM21.2786 36.3823L20.7352 37.9856H21.8341L21.2786 36.3823ZM46.8564 36.2497C46.5545 35.9604 46.1439 35.9363 45.8299 35.9363H45.516V38.709H45.7816C46.0956 38.709 46.5304 38.6848 46.8685 38.3473C47.0376 38.1906 47.2429 37.8772 47.2429 37.3226C47.2429 36.8766 47.11 36.4788 46.8564 36.2497ZM46.8564 36.2497C46.5545 35.9604 46.1439 35.9363 45.8299 35.9363H45.516V38.709H45.7816C46.0956 38.709 46.5304 38.6848 46.8685 38.3473C47.0376 38.1906 47.2429 37.8772 47.2429 37.3226C47.2429 36.8766 47.11 36.4788 46.8564 36.2497ZM21.2786 36.3823L20.7352 37.9856H21.8341L21.2786 36.3823ZM11.7866 36.0327C11.6658 35.9122 11.4484 35.8398 11.1707 35.8398H10.9291V37.0695H11.1707C11.3639 37.0695 11.6417 37.0212 11.7986 36.8645C11.8953 36.7681 11.9677 36.5993 11.9677 36.4426C11.9677 36.2859 11.8953 36.1292 11.7866 36.0327ZM11.7866 36.0327C11.6658 35.9122 11.4484 35.8398 11.1707 35.8398H10.9291V37.0695H11.1707C11.3639 37.0695 11.6417 37.0212 11.7986 36.8645C11.8953 36.7681 11.9677 36.5993 11.9677 36.4426C11.9677 36.2859 11.8953 36.1292 11.7866 36.0327ZM21.2786 36.3823L20.7352 37.9856H21.8341L21.2786 36.3823ZM46.8564 36.2497C46.5545 35.9604 46.1439 35.9363 45.8299 35.9363H45.516V38.709H45.7816C46.0956 38.709 46.5304 38.6848 46.8685 38.3473C47.0376 38.1906 47.2429 37.8772 47.2429 37.3226C47.2429 36.8766 47.11 36.4788 46.8564 36.2497ZM71.6372 36.3703C71.3595 36.1051 70.9851 35.9724 70.6349 35.9724C70.2726 35.9724 69.8982 36.093 69.6325 36.3703C69.3668 36.6355 69.234 36.9971 69.234 37.3467C69.234 37.7807 69.4393 38.0941 69.6325 38.275C69.8741 38.504 70.2122 38.6728 70.6349 38.6728C71.0575 38.6728 71.3957 38.5161 71.6372 38.287C71.8667 38.058 72.0357 37.7084 72.0357 37.3347C72.0357 36.961 71.8667 36.5993 71.6372 36.3703ZM77.0716 36.0568C76.9267 35.9001 76.6851 35.876 76.5161 35.876H76.0813V37.1056H76.5161C76.6489 37.1056 76.9025 37.0936 77.0595 36.9489C77.2165 36.8163 77.2286 36.6114 77.2286 36.4908C77.2286 36.3703 77.2165 36.1894 77.0716 36.0568ZM77.0716 36.0568C76.9267 35.9001 76.6851 35.876 76.5161 35.876H76.0813V37.1056H76.5161C76.6489 37.1056 76.9025 37.0936 77.0595 36.9489C77.2165 36.8163 77.2286 36.6114 77.2286 36.4908C77.2286 36.3703 77.2165 36.1894 77.0716 36.0568ZM71.6372 36.3703C71.3595 36.1051 70.9851 35.9724 70.6349 35.9724C70.2726 35.9724 69.8982 36.093 69.6325 36.3703C69.3668 36.6355 69.234 36.9971 69.234 37.3467C69.234 37.7807 69.4393 38.0941 69.6325 38.275C69.8741 38.504 70.2122 38.6728 70.6349 38.6728C71.0575 38.6728 71.3957 38.5161 71.6372 38.287C71.8667 38.058 72.0357 37.7084 72.0357 37.3347C72.0357 36.961 71.8667 36.5993 71.6372 36.3703ZM46.8564 36.2497C46.5545 35.9604 46.1439 35.9363 45.8299 35.9363H45.516V38.709H45.7816C46.0956 38.709 46.5304 38.6848 46.8685 38.3473C47.0376 38.1906 47.2429 37.8772 47.2429 37.3226C47.2429 36.8766 47.11 36.4788 46.8564 36.2497ZM21.2786 36.3823L20.7352 37.9856H21.8341L21.2786 36.3823ZM11.7866 36.0327C11.6658 35.9122 11.4484 35.8398 11.1707 35.8398H10.9291V37.0695H11.1707C11.3639 37.0695 11.6417 37.0212 11.7986 36.8645C11.8953 36.7681 11.9677 36.5993 11.9677 36.4426C11.9677 36.2859 11.8953 36.1292 11.7866 36.0327ZM11.7866 36.0327C11.6658 35.9122 11.4484 35.8398 11.1707 35.8398H10.9291V37.0695H11.1707C11.3639 37.0695 11.6417 37.0212 11.7986 36.8645C11.8953 36.7681 11.9677 36.5993 11.9677 36.4426C11.9677 36.2859 11.8953 36.1292 11.7866 36.0327ZM21.2786 36.3823L20.7352 37.9856H21.8341L21.2786 36.3823ZM46.8564 36.2497C46.5545 35.9604 46.1439 35.9363 45.8299 35.9363H45.516V38.709H45.7816C46.0956 38.709 46.5304 38.6848 46.8685 38.3473C47.0376 38.1906 47.2429 37.8772 47.2429 37.3226C47.2429 36.8766 47.11 36.4788 46.8564 36.2497ZM71.6372 36.3703C71.3595 36.1051 70.9851 35.9724 70.6349 35.9724C70.2726 35.9724 69.8982 36.093 69.6325 36.3703C69.3668 36.6355 69.234 36.9971 69.234 37.3467C69.234 37.7807 69.4393 38.0941 69.6325 38.275C69.8741 38.504 70.2122 38.6728 70.6349 38.6728C71.0575 38.6728 71.3957 38.5161 71.6372 38.287C71.8667 38.058 72.0357 37.7084 72.0357 37.3347C72.0357 36.961 71.8667 36.5993 71.6372 36.3703ZM77.0716 36.0568C76.9267 35.9001 76.6851 35.876 76.5161 35.876H76.0813V37.1056H76.5161C76.6489 37.1056 76.9025 37.0936 77.0595 36.9489C77.2165 36.8163 77.2286 36.6114 77.2286 36.4908C77.2286 36.3703 77.2165 36.1894 77.0716 36.0568ZM86.2497 36.0327C86.1289 35.9122 85.9115 35.8398 85.6338 35.8398H85.3922V37.0695H85.6338C85.827 37.0695 86.1047 37.0212 86.2617 36.8645C86.3583 36.7681 86.4308 36.5993 86.4308 36.4426C86.4308 36.2859 86.3583 36.1292 86.2497 36.0327ZM86.2497 36.0327C86.1289 35.9122 85.9115 35.8398 85.6338 35.8398H85.3922V37.0695H85.6338C85.827 37.0695 86.1047 37.0212 86.2617 36.8645C86.3583 36.7681 86.4308 36.5993 86.4308 36.4426C86.4308 36.2859 86.3583 36.1292 86.2497 36.0327ZM77.0716 36.0568C76.9267 35.9001 76.6851 35.876 76.5161 35.876H76.0813V37.1056H76.5161C76.6489 37.1056 76.9025 37.0936 77.0595 36.9489C77.2165 36.8163 77.2286 36.6114 77.2286 36.4908C77.2286 36.3703 77.2165 36.1894 77.0716 36.0568ZM71.6372 36.3703C71.3595 36.1051 70.9851 35.9724 70.6349 35.9724C70.2726 35.9724 69.8982 36.093 69.6325 36.3703C69.3668 36.6355 69.234 36.9971 69.234 37.3467C69.234 37.7807 69.4393 38.0941 69.6325 38.275C69.8741 38.504 70.2122 38.6728 70.6349 38.6728C71.0575 38.6728 71.3957 38.5161 71.6372 38.287C71.8667 38.058 72.0357 37.7084 72.0357 37.3347C72.0357 36.961 71.8667 36.5993 71.6372 36.3703ZM46.8564 36.2497C46.5545 35.9604 46.1439 35.9363 45.8299 35.9363H45.516V38.709H45.7816C46.0956 38.709 46.5304 38.6848 46.8685 38.3473C47.0376 38.1906 47.2429 37.8772 47.2429 37.3226C47.2429 36.8766 47.11 36.4788 46.8564 36.2497ZM21.2786 36.3823L20.7352 37.9856H21.8341L21.2786 36.3823ZM11.7866 36.0327C11.6658 35.9122 11.4484 35.8398 11.1707 35.8398H10.9291V37.0695H11.1707C11.3639 37.0695 11.6417 37.0212 11.7986 36.8645C11.8953 36.7681 11.9677 36.5993 11.9677 36.4426C11.9677 36.2859 11.8953 36.1292 11.7866 36.0327ZM0.386444 32.1148V42H97.5773V32.1148H0.386444ZM8.21195 36.5511C7.78928 36.0327 7.30622 36.0086 7.08885 36.0086C6.71448 36.0086 6.43672 36.1171 6.19519 36.3341C5.89328 36.6114 5.76044 36.9971 5.76044 37.3588C5.76044 37.7204 5.90536 38.0821 6.15896 38.3232C6.37634 38.5281 6.71448 38.6607 7.08885 38.6607C7.28207 38.6607 7.76513 38.6366 8.21195 38.1424V39.6613C7.69267 39.8421 7.41491 39.9024 7.08885 39.9024C6.21935 39.9024 5.5793 39.5649 5.1687 39.155C4.68564 38.6728 4.41996 37.9977 4.41996 37.3467C4.41996 36.6355 4.72187 35.9724 5.1687 35.5143C5.60345 35.0683 6.26765 34.7428 7.04054 34.7428C7.28207 34.7428 7.66851 34.779 8.19988 34.996L8.21195 36.5511ZM12.1609 39.806L10.9291 37.9013V39.806H9.63697V34.8393H11.6537C12.0281 34.8393 12.4991 34.8995 12.8734 35.2732C13.1512 35.5626 13.2961 35.9966 13.2961 36.3944C13.2961 36.8163 13.1512 37.19 12.8976 37.4311C12.7044 37.6119 12.4387 37.7325 12.2092 37.7687L13.7671 39.806H12.1609ZM17.7282 35.9363H16.1945V36.7681H17.6436V37.8651H16.1945V38.721H17.7282V39.818H14.9023V34.8393H17.7282V35.9363ZM22.4863 39.806L22.1843 38.9742H20.385L20.0468 39.806H18.6822L20.5903 34.8393H22.0032L23.875 39.806H22.4863ZM27.7516 35.9363H26.6888V39.806H25.3967V35.9363H24.3339V34.8393H27.7395V35.9363H27.7516ZM30.2031 39.806H28.9109V34.8393H30.2031V39.806ZM34.4177 39.806H33.4154L31.3262 34.8393H32.7391L33.9347 37.8651L35.1423 34.8393H36.5432L34.4177 39.806ZM40.4801 35.9363H38.9464V36.7681H40.3956V37.8651H38.9464V38.721H40.4801V39.818H37.6542V34.8393H40.4801V35.9363ZM47.9433 39.0465C47.5448 39.4443 46.8806 39.7939 46.0352 39.7939H44.2359V34.8393H45.9265C46.4217 34.8393 47.255 34.9116 47.9071 35.5264C48.4867 36.0809 48.6075 36.8042 48.6075 37.3347C48.5834 37.9856 48.4264 38.5643 47.9433 39.0465ZM52.8343 35.9363H51.3005V36.7681H52.7497V37.8651H51.3005V38.721H52.8343V39.818H50.0084V34.8393H52.8343V35.9363ZM56.8195 39.806H55.8171L53.7279 34.8393H55.1408L56.3364 37.8651L57.544 34.8393H58.9328L56.8195 39.806ZM62.8818 35.9363H61.3481V36.7681H62.7973V37.8651H61.3481V38.721H62.8818V39.818H60.0559V34.8393H62.8818V35.9363ZM67.1327 39.806H64.2948V34.8393H65.5869V38.709H67.1327V39.806ZM72.5912 39.1791C72.084 39.6613 71.3715 39.9145 70.6349 39.9145C69.8982 39.9145 69.1857 39.6613 68.6785 39.1791C68.1471 38.6728 67.8935 37.9856 67.8935 37.3226C67.8935 36.6596 68.1471 35.9604 68.6785 35.4661C69.1857 34.9839 69.8982 34.7308 70.6349 34.7308C71.3715 34.7308 72.084 34.9839 72.5912 35.4661C73.1226 35.9604 73.3762 36.6596 73.3762 37.3226C73.3762 37.9856 73.1226 38.6728 72.5912 39.1791ZM78.1343 37.7325C77.7479 38.1062 77.289 38.1665 76.9025 38.1665H76.0813V39.806H74.7891V34.8393H76.8421C77.2769 34.8393 77.7237 34.9236 78.0981 35.2853C78.4845 35.659 78.557 36.0689 78.557 36.4908C78.5811 36.8886 78.5208 37.3467 78.1343 37.7325ZM82.6871 35.9363H81.1534V36.7681H82.6026V37.8651H81.1534V38.721H82.6871V39.818H79.8612V34.8393H82.6871V35.9363ZM86.624 39.806L85.3922 37.9013V39.806H84.1001V34.8393H86.1047C86.4791 34.8393 86.9501 34.8995 87.3244 35.2732C87.6022 35.5626 87.7471 35.9966 87.7471 36.3944C87.7471 36.8163 87.6022 37.19 87.3486 37.4311C87.1554 37.6119 86.8897 37.7325 86.6602 37.7687L88.2181 39.806H86.624ZM92.3482 39.4081C91.9256 39.8301 91.4063 39.9145 90.8749 39.9145C90.5609 39.9145 90.259 39.8904 89.8967 39.7457C89.8122 39.7216 89.4982 39.601 89.148 39.3479L89.7035 38.3111C89.9813 38.5763 90.4039 38.8174 90.8508 38.8174C91.1164 38.8174 91.2734 38.7331 91.3459 38.6487C91.4184 38.5763 91.4667 38.4679 91.4667 38.3352C91.4667 38.2388 91.4304 38.1303 91.3217 38.0339C91.201 37.9254 90.9957 37.8651 90.6817 37.7687L90.3436 37.6602C90.1383 37.5878 89.8363 37.4793 89.6311 37.2623C89.3774 36.9851 89.3533 36.6355 89.3533 36.3823C89.3533 35.7675 89.5948 35.4059 89.8122 35.1889C90.0658 34.9357 90.4764 34.7187 91.0802 34.7187C91.5753 34.7187 92.1429 34.8754 92.6139 35.1165L92.0946 36.1171C91.7082 35.8157 91.4184 35.7796 91.2493 35.7796C91.1285 35.7796 90.9474 35.8037 90.8266 35.9242C90.7542 35.9966 90.7058 36.0809 90.7058 36.1894C90.7058 36.2738 90.7179 36.3462 90.7783 36.4185C90.8145 36.4667 90.8991 36.5511 91.2131 36.6475L91.6116 36.7681C91.9256 36.8645 92.2516 36.973 92.5173 37.2623C92.7709 37.5276 92.8434 37.8048 92.8434 38.1424C92.8071 38.6125 92.6985 39.0465 92.3482 39.4081ZM85.6338 35.8398H85.3922V37.0695H85.6338C85.827 37.0695 86.1047 37.0212 86.2617 36.8645C86.3583 36.7681 86.4308 36.5993 86.4308 36.4426C86.4308 36.2859 86.3704 36.1292 86.2617 36.0207C86.1289 35.9122 85.9115 35.8398 85.6338 35.8398ZM76.5282 35.876H76.0813V37.1056H76.5161C76.6489 37.1056 76.9025 37.0936 77.0595 36.9489C77.2165 36.8163 77.2286 36.6114 77.2286 36.4908C77.2286 36.3582 77.2165 36.1774 77.0837 36.0448C76.9267 35.9001 76.6851 35.876 76.5282 35.876ZM70.6349 35.9845C70.2726 35.9845 69.8982 36.105 69.6325 36.3823C69.3668 36.6475 69.234 37.0092 69.234 37.3588C69.234 37.7928 69.4393 38.1062 69.6325 38.287C69.8741 38.5161 70.2122 38.6848 70.6349 38.6848C71.0575 38.6848 71.3957 38.5281 71.6372 38.2991C71.8667 38.07 72.0357 37.7204 72.0357 37.3467C72.0357 36.973 71.8667 36.6234 71.6372 36.3944C71.3595 36.1171 70.9851 35.9845 70.6349 35.9845ZM45.8299 35.9363H45.516V38.709H45.7816C46.0956 38.709 46.5304 38.6848 46.8685 38.3473C47.0376 38.1906 47.2429 37.8772 47.2429 37.3226C47.2429 36.8645 47.098 36.4667 46.8564 36.2377C46.5545 35.9604 46.156 35.9363 45.8299 35.9363ZM20.7352 37.9856H21.8341L21.2786 36.3823L20.7352 37.9856ZM11.1707 35.8398H10.9291V37.0695H11.1707C11.3639 37.0695 11.6417 37.0212 11.7986 36.8645C11.8953 36.7681 11.9677 36.5993 11.9677 36.4426C11.9677 36.2859 11.9073 36.1292 11.7986 36.0207C11.6658 35.9122 11.4484 35.8398 11.1707 35.8398ZM11.7866 36.0327C11.6658 35.9122 11.4484 35.8398 11.1707 35.8398H10.9291V37.0695H11.1707C11.3639 37.0695 11.6417 37.0212 11.7986 36.8645C11.8953 36.7681 11.9677 36.5993 11.9677 36.4426C11.9677 36.2859 11.8953 36.1292 11.7866 36.0327ZM21.2786 36.3823L20.7352 37.9856H21.8341L21.2786 36.3823ZM46.8564 36.2497C46.5545 35.9604 46.1439 35.9363 45.8299 35.9363H45.516V38.709H45.7816C46.0956 38.709 46.5304 38.6848 46.8685 38.3473C47.0376 38.1906 47.2429 37.8772 47.2429 37.3226C47.2429 36.8766 47.11 36.4788 46.8564 36.2497ZM71.6372 36.3703C71.3595 36.1051 70.9851 35.9724 70.6349 35.9724C70.2726 35.9724 69.8982 36.093 69.6325 36.3703C69.3668 36.6355 69.234 36.9971 69.234 37.3467C69.234 37.7807 69.4393 38.0941 69.6325 38.275C69.8741 38.504 70.2122 38.6728 70.6349 38.6728C71.0575 38.6728 71.3957 38.5161 71.6372 38.287C71.8667 38.058 72.0357 37.7084 72.0357 37.3347C72.0357 36.961 71.8667 36.5993 71.6372 36.3703ZM77.0716 36.0568C76.9267 35.9001 76.6851 35.876 76.5161 35.876H76.0813V37.1056H76.5161C76.6489 37.1056 76.9025 37.0936 77.0595 36.9489C77.2165 36.8163 77.2286 36.6114 77.2286 36.4908C77.2286 36.3703 77.2165 36.1894 77.0716 36.0568ZM77.0716 36.0568C76.9267 35.9001 76.6851 35.876 76.5161 35.876H76.0813V37.1056H76.5161C76.6489 37.1056 76.9025 37.0936 77.0595 36.9489C77.2165 36.8163 77.2286 36.6114 77.2286 36.4908C77.2286 36.3703 77.2165 36.1894 77.0716 36.0568ZM71.6372 36.3703C71.3595 36.1051 70.9851 35.9724 70.6349 35.9724C70.2726 35.9724 69.8982 36.093 69.6325 36.3703C69.3668 36.6355 69.234 36.9971 69.234 37.3467C69.234 37.7807 69.4393 38.0941 69.6325 38.275C69.8741 38.504 70.2122 38.6728 70.6349 38.6728C71.0575 38.6728 71.3957 38.5161 71.6372 38.287C71.8667 38.058 72.0357 37.7084 72.0357 37.3347C72.0357 36.961 71.8667 36.5993 71.6372 36.3703ZM46.8564 36.2497C46.5545 35.9604 46.1439 35.9363 45.8299 35.9363H45.516V38.709H45.7816C46.0956 38.709 46.5304 38.6848 46.8685 38.3473C47.0376 38.1906 47.2429 37.8772 47.2429 37.3226C47.2429 36.8766 47.11 36.4788 46.8564 36.2497ZM21.2786 36.3823L20.7352 37.9856H21.8341L21.2786 36.3823ZM11.7866 36.0327C11.6658 35.9122 11.4484 35.8398 11.1707 35.8398H10.9291V37.0695H11.1707C11.3639 37.0695 11.6417 37.0212 11.7986 36.8645C11.8953 36.7681 11.9677 36.5993 11.9677 36.4426C11.9677 36.2859 11.8953 36.1292 11.7866 36.0327ZM11.7866 36.0327C11.6658 35.9122 11.4484 35.8398 11.1707 35.8398H10.9291V37.0695H11.1707C11.3639 37.0695 11.6417 37.0212 11.7986 36.8645C11.8953 36.7681 11.9677 36.5993 11.9677 36.4426C11.9677 36.2859 11.8953 36.1292 11.7866 36.0327ZM21.2786 36.3823L20.7352 37.9856H21.8341L21.2786 36.3823ZM46.8564 36.2497C46.5545 35.9604 46.1439 35.9363 45.8299 35.9363H45.516V38.709H45.7816C46.0956 38.709 46.5304 38.6848 46.8685 38.3473C47.0376 38.1906 47.2429 37.8772 47.2429 37.3226C47.2429 36.8766 47.11 36.4788 46.8564 36.2497ZM71.6372 36.3703C71.3595 36.1051 70.9851 35.9724 70.6349 35.9724C70.2726 35.9724 69.8982 36.093 69.6325 36.3703C69.3668 36.6355 69.234 36.9971 69.234 37.3467C69.234 37.7807 69.4393 38.0941 69.6325 38.275C69.8741 38.504 70.2122 38.6728 70.6349 38.6728C71.0575 38.6728 71.3957 38.5161 71.6372 38.287C71.8667 38.058 72.0357 37.7084 72.0357 37.3347C72.0357 36.961 71.8667 36.5993 71.6372 36.3703ZM71.6372 36.3703C71.3595 36.1051 70.9851 35.9724 70.6349 35.9724C70.2726 35.9724 69.8982 36.093 69.6325 36.3703C69.3668 36.6355 69.234 36.9971 69.234 37.3467C69.234 37.7807 69.4393 38.0941 69.6325 38.275C69.8741 38.504 70.2122 38.6728 70.6349 38.6728C71.0575 38.6728 71.3957 38.5161 71.6372 38.287C71.8667 38.058 72.0357 37.7084 72.0357 37.3347C72.0357 36.961 71.8667 36.5993 71.6372 36.3703ZM46.8564 36.2497C46.5545 35.9604 46.1439 35.9363 45.8299 35.9363H45.516V38.709H45.7816C46.0956 38.709 46.5304 38.6848 46.8685 38.3473C47.0376 38.1906 47.2429 37.8772 47.2429 37.3226C47.2429 36.8766 47.11 36.4788 46.8564 36.2497ZM21.2786 36.3823L20.7352 37.9856H21.8341L21.2786 36.3823ZM11.7866 36.0327C11.6658 35.9122 11.4484 35.8398 11.1707 35.8398H10.9291V37.0695H11.1707C11.3639 37.0695 11.6417 37.0212 11.7986 36.8645C11.8953 36.7681 11.9677 36.5993 11.9677 36.4426C11.9677 36.2859 11.8953 36.1292 11.7866 36.0327ZM11.7866 36.0327C11.6658 35.9122 11.4484 35.8398 11.1707 35.8398H10.9291V37.0695H11.1707C11.3639 37.0695 11.6417 37.0212 11.7986 36.8645C11.8953 36.7681 11.9677 36.5993 11.9677 36.4426C11.9677 36.2859 11.8953 36.1292 11.7866 36.0327ZM21.2786 36.3823L20.7352 37.9856H21.8341L21.2786 36.3823ZM46.8564 36.2497C46.5545 35.9604 46.1439 35.9363 45.8299 35.9363H45.516V38.709H45.7816C46.0956 38.709 46.5304 38.6848 46.8685 38.3473C47.0376 38.1906 47.2429 37.8772 47.2429 37.3226C47.2429 36.8766 47.11 36.4788 46.8564 36.2497ZM46.8564 36.2497C46.5545 35.9604 46.1439 35.9363 45.8299 35.9363H45.516V38.709H45.7816C46.0956 38.709 46.5304 38.6848 46.8685 38.3473C47.0376 38.1906 47.2429 37.8772 47.2429 37.3226C47.2429 36.8766 47.11 36.4788 46.8564 36.2497ZM21.2786 36.3823L20.7352 37.9856H21.8341L21.2786 36.3823ZM11.7866 36.0327C11.6658 35.9122 11.4484 35.8398 11.1707 35.8398H10.9291V37.0695H11.1707C11.3639 37.0695 11.6417 37.0212 11.7986 36.8645C11.8953 36.7681 11.9677 36.5993 11.9677 36.4426C11.9677 36.2859 11.8953 36.1292 11.7866 36.0327ZM11.7866 36.0327C11.6658 35.9122 11.4484 35.8398 11.1707 35.8398H10.9291V37.0695H11.1707C11.3639 37.0695 11.6417 37.0212 11.7986 36.8645C11.8953 36.7681 11.9677 36.5993 11.9677 36.4426C11.9677 36.2859 11.8953 36.1292 11.7866 36.0327ZM21.2786 36.3823L20.7352 37.9856H21.8341L21.2786 36.3823ZM46.8564 36.2497C46.5545 35.9604 46.1439 35.9363 45.8299 35.9363H45.516V38.709H45.7816C46.0956 38.709 46.5304 38.6848 46.8685 38.3473C47.0376 38.1906 47.2429 37.8772 47.2429 37.3226C47.2429 36.8766 47.11 36.4788 46.8564 36.2497ZM46.8564 36.2497C46.5545 35.9604 46.1439 35.9363 45.8299 35.9363H45.516V38.709H45.7816C46.0956 38.709 46.5304 38.6848 46.8685 38.3473C47.0376 38.1906 47.2429 37.8772 47.2429 37.3226C47.2429 36.8766 47.11 36.4788 46.8564 36.2497ZM21.2786 36.3823L20.7352 37.9856H21.8341L21.2786 36.3823ZM11.7866 36.0327C11.6658 35.9122 11.4484 35.8398 11.1707 35.8398H10.9291V37.0695H11.1707C11.3639 37.0695 11.6417 37.0212 11.7986 36.8645C11.8953 36.7681 11.9677 36.5993 11.9677 36.4426C11.9677 36.2859 11.8953 36.1292 11.7866 36.0327ZM11.7866 36.0327C11.6658 35.9122 11.4484 35.8398 11.1707 35.8398H10.9291V37.0695H11.1707C11.3639 37.0695 11.6417 37.0212 11.7986 36.8645C11.8953 36.7681 11.9677 36.5993 11.9677 36.4426C11.9677 36.2859 11.8953 36.1292 11.7866 36.0327ZM21.2786 36.3823L20.7352 37.9856H21.8341L21.2786 36.3823ZM21.2786 36.3823L20.7352 37.9856H21.8341L21.2786 36.3823ZM11.7866 36.0327C11.6658 35.9122 11.4484 35.8398 11.1707 35.8398H10.9291V37.0695H11.1707C11.3639 37.0695 11.6417 37.0212 11.7986 36.8645C11.8953 36.7681 11.9677 36.5993 11.9677 36.4426C11.9677 36.2859 11.8953 36.1292 11.7866 36.0327ZM11.7866 36.0327C11.6658 35.9122 11.4484 35.8398 11.1707 35.8398H10.9291V37.0695H11.1707C11.3639 37.0695 11.6417 37.0212 11.7986 36.8645C11.8953 36.7681 11.9677 36.5993 11.9677 36.4426C11.9677 36.2859 11.8953 36.1292 11.7866 36.0327ZM21.2786 36.3823L20.7352 37.9856H21.8341L21.2786 36.3823ZM21.2786 36.3823L20.7352 37.9856H21.8341L21.2786 36.3823ZM11.7866 36.0327C11.6658 35.9122 11.4484 35.8398 11.1707 35.8398H10.9291V37.0695H11.1707C11.3639 37.0695 11.6417 37.0212 11.7986 36.8645C11.8953 36.7681 11.9677 36.5993 11.9677 36.4426C11.9677 36.2859 11.8953 36.1292 11.7866 36.0327ZM11.7866 36.0327C11.6658 35.9122 11.4484 35.8398 11.1707 35.8398H10.9291V37.0695H11.1707C11.3639 37.0695 11.6417 37.0212 11.7986 36.8645C11.8953 36.7681 11.9677 36.5993 11.9677 36.4426C11.9677 36.2859 11.8953 36.1292 11.7866 36.0327ZM21.2786 36.3823L20.7352 37.9856H21.8341L21.2786 36.3823ZM21.2786 36.3823L20.7352 37.9856H21.8341L21.2786 36.3823ZM11.7866 36.0327C11.6658 35.9122 11.4484 35.8398 11.1707 35.8398H10.9291V37.0695H11.1707C11.3639 37.0695 11.6417 37.0212 11.7986 36.8645C11.8953 36.7681 11.9677 36.5993 11.9677 36.4426C11.9677 36.2859 11.8953 36.1292 11.7866 36.0327ZM11.7866 36.0327C11.6658 35.9122 11.4484 35.8398 11.1707 35.8398H10.9291V37.0695H11.1707C11.3639 37.0695 11.6417 37.0212 11.7986 36.8645C11.8953 36.7681 11.9677 36.5993 11.9677 36.4426C11.9677 36.2859 11.8953 36.1292 11.7866 36.0327ZM11.7866 36.0327C11.6658 35.9122 11.4484 35.8398 11.1707 35.8398H10.9291V37.0695H11.1707C11.3639 37.0695 11.6417 37.0212 11.7986 36.8645C11.8953 36.7681 11.9677 36.5993 11.9677 36.4426C11.9677 36.2859 11.8953 36.1292 11.7866 36.0327Z" fill="#8C919A"/>
<path fill-rule="evenodd" clip-rule="evenodd" d="M28.6935 11.7537L32.401 8.10103L35.2752 10.9701L31.616 14.6711L35.2752 18.372L32.3889 21.2532L28.6815 17.5522L25.0223 21.2049L22.136 18.372L25.7952 14.6711L22.0998 10.9701L24.9861 8.10103C24.9861 8.08898 28.6935 11.7537 28.6935 11.7537ZM70.4175 14.5023C70.4175 20.337 65.6473 24.8938 60.0076 24.8938C56.0949 24.8938 51.53 22.5913 49.9238 17.1665C49.9238 17.0821 49.5978 15.4426 49.5978 15.0689V13.9116C50.0929 7.66705 55.1529 4.09874 60.0076 4.09874C65.7681 4.11079 70.4175 8.83639 70.4175 14.5023ZM95.319 7.23306C95.319 9.86108 93.2177 11.8381 90.7058 11.8381C88.194 11.8381 86.1047 9.74053 86.1047 7.23306C86.1047 4.7256 88.1577 2.62801 90.7179 2.62801C93.2781 2.62801 95.319 4.67738 95.319 7.23306ZM18.9358 10.9701L15.2766 14.6711L18.9358 18.372C16.6292 25.8823 10.4582 29.1734 4.85471 29.1734C3.28478 29.1734 1.52163 28.9323 0 28.3536V23.8691C1.52163 24.6527 3.29686 25.0987 4.85471 25.0987C5.59137 25.0987 6.46087 24.9782 7.28207 24.7732C7.65644 24.6889 8.15157 24.5321 8.5984 24.3634C9.009 24.1946 9.38336 23.9897 9.83019 23.7847C12.173 22.6274 14.3951 19.5896 14.854 17.5402C14.8902 17.3352 15.0593 16.9254 15.0593 16.841V16.6722H4.23882V12.6579H15.023C15.0472 12.6338 15.0593 12.5855 15.0593 12.5373C15.0593 12.4168 14.6849 11.3439 14.4796 10.729C13.6946 8.42652 10.7722 5.67796 8.63463 4.94259C7.43906 4.53272 6.00197 4.2434 4.80641 4.2434C3.16402 4.23134 1.60616 4.55683 0 5.4248V0.940298C1.52163 0.325488 3.29686 0.120551 4.81848 0.120551C10.3736 0.120551 16.6654 3.32721 18.9358 10.9701ZM98 7.23306C98 11.2595 94.7031 14.4661 90.7179 14.4661C88.037 14.4661 85.199 13.2365 83.8465 9.61998C83.7257 9.24627 83.4721 8.22158 83.4721 7.77554V6.70264C83.9672 2.26636 87.3365 0.0120551 90.7179 0.0120551C94.7031 0 98 3.17049 98 7.23306ZM80.9602 0V14.4661H77.6271V0H80.9602ZM74.5355 14.5023C74.5355 22.5913 67.9539 29.0528 59.9714 29.0528C54.368 29.0528 48.0399 25.6894 45.8903 18.167C45.7696 17.6366 45.4314 15.6596 45.4314 14.9242V14.1045C46.0111 4.89437 53.0879 0 60.0076 0C68.0747 0 74.5355 6.44948 74.5355 14.5023ZM42.521 0V29.0408H38.1977V0H42.521Z" fill="#8C919A"/>
</g>
<defs>
<clipPath id="clip0_1_33">
<rect width="98" height="42" fill="white"/>
</clipPath>
</defs>
</svg>
